# AST/ASF file generated using VICON BodyLanguage
# -----------------------------------------------
:version 1.10
:name VICON
:units
  mass 1.0
  length 0.45
  angle deg
:documentation
   .ast/.asf automatically generated from VICON data using
   VICON BodyBuilder and BodyLanguage model FoxedUp or BRILLIANT.MOD
:root
   order TX TY TZ RX RY RZ
   axis XYZ
   position 0 0 0  
   orientation 0 0 0 
:bonedata
  begin
     id 1 
     name lhipjoint
     direction 0.576517 -0.752066 0.319413 
     length 2.45433 
     axis 0 0 0  XYZ
  end
  begin
     id 2 
     name lfemur
     direction 0.34202 -0.939693 0  
     length 7.54459  
     axis 0 0 20  XYZ
    dof rx ry rz
    limits (-160.0 20.0)
           (-70.0 70.0)
           (-60.0 70.0)
  end
  begin
     id 3 
     name ltibia
     direction 0.34202 -0.939693 0   
     length 7.73986   
     axis 0 0 20   XYZ
    dof rx
    limits (-10.0 170.0)
  end
  begin
     id 4 
     name lfoot
     direction 0.090693 -0.249177 0.964202   
     length 2.28437   
     axis -90 7.62852e-016 20   XYZ
    dof rx rz
    limits (-45.0 90.0)
           (-70.0 20.0)
  end
  begin
     id 5 
     name ltoes
     direction 1.5356e-011 -4.21928e-011 1   
     length 1.14243   
     axis -90 7.62852e-016 20   XYZ
    dof rx
    limits (-90.0 20.0)
  end
  begin
     id 6 
     name rhipjoint
     direction -0.573937 -0.753736 0.320122   
     length 2.44889  
     axis 0 0 0  XYZ 
  end
  begin
     id 7 
     name rfemur
     direction -0.34202 -0.939693 0   
     length 7.50166   
     axis 0 0 -20   XYZ
    dof rx ry rz
    limits (-160.0 20.0)
           (-70.0 70.0)
           (-70.0 60.0)
  end
  begin
     id 8 
     name rtibia
     direction -0.34202 -0.939693 0   
     length 7.54266   
     axis 0 0 -20   XYZ
    dof rx
    limits (-10.0 170.0)
 end
 begin
     id 9 
     name rfoot
     direction -0.114017 -0.31326 0.942798   
     length 2.34212  
     axis -90 -7.62852e-016 -20   XYZ
    dof rx rz
    limits (-45.0 90.0)
           (-20.0 70.0)
  end
  begin
     id 10 
     name rtoes
     direction -1.53557e-011 -4.21867e-011 1   
     length 1.16246   
     axis -90 -7.62852e-016 -20   XYZ
    dof rx
    limits (-90.0 20.0)
  end
  begin
     id 11 
     name lowerback
     direction -0.0228371 0.999155 -0.034167   
     length 2.0537   
     axis 0 0 0   XYZ
    dof rx ry rz
    limits (-20.0 45.0)
           (-30.0 30.0)
           (-30.0 30.0)
  end
  begin
     id 12 
     name upperback
     direction 0.0198981 0.999794 0.00389455   
     length 2.05302   
     axis 0 0 0   XYZ
    dof rx ry rz
    limits (-20.0 45.0)
           (-30.0 30.0)
           (-30.0 30.0)
  end
  begin
     id 13 
     name thorax
     direction 0.0304566 0.99935 0.0192987   
     length 2.05315   
     axis 0 0 0   XYZ
    dof rx ry rz
    limits (-20.0 45.0)
           (-30.0 30.0)
           (-30.0 30.0)
  end
  begin
     id 14 
     name lowerneck
     direction -0.0196762 0.99417 0.106017   
     length 1.82056   
     axis 0 0 0   XYZ
    dof rx ry rz
    limits (-20.0 45.0)
           (-30.0 30.0)
           (-30.0 30.0)
  end
  begin
     id 15 
     name upperneck
     direction 0.00517787 0.9802 -0.197944   
     length 1.83835   
     axis 0 0 0   XYZ
    dof rx ry rz
    limits (-20.0 45.0)
           (-30.0 30.0)
           (-30.0 30.0)
  end
  begin
     id 16
     name head
     direction 0.00211419 0.996945 -0.078081  
     length 1.85629  
     axis 0 0 0   XYZ
    dof rx ry rz
    limits (-20.0 45.0)
           (-30.0 30.0)
           (-30.0 30.0)
  end
  begin
     id 17 
     name lclavicle
     direction 0.930001 0.365811 -0.0357824  
     length 3.81961  
     axis 0 0 0   XYZ
    dof ry rz
    limits (-20.0 10.0)
           (0.0 20.0)
  end
  begin
     id 18 
     name lhumerus
     direction 1 -4.48968e-011 -3.06644e-027   
     length 5.14507   
     axis 180 -30 -90   XYZ
    dof rx ry rz
    limits (-60.0 90.0)
           (-90.0 90.0)
           (-90.0 90.0)
  end
  begin
     id 19
     name lradius
     direction 1 -4.48965e-011 9.06925e-028   
     length 3.50646   
     axis 180 -30 -90   XYZ
    dof rx
    limits (-10.0 170.0)
  end
  begin
     id 20
     name lwrist
     direction 1 -4.48957e-011 1.03922e-027   
     length 1.75323   
     axis -2.56395e-016 90 90   XYZ
    dof ry
    limits (-180.0 0.0)
 end
  begin
     id 21 
     name lhand
     direction 1 -4.48967e-011 2.08017e-027   
     length 0.629969   
     axis -1.32723e-015 90 90   XYZ
    dof rx rz
    limits (-90.0 90.0)
           (-45.0 45.0)
  end
  begin
     id 22 
     name lfingers
     direction 1 -4.49089e-011 4.20095e-027   
     length 0.507897   
     axis -2.6545e-015 90 90   XYZ
    dof rx
    limits (0.0 90.0)
  end
  begin
     id 23
     name lthumb
     direction 0.707107 -6.35001e-011 0.707107   
     length 0.729241   
     axis -90 45 5.05613e-014   XYZ
    dof rx rz
    limits (-45.0 45.0)
           (-45.0 45.0)
  end
  begin
     id 24 
     name rclavicle
     direction -0.881882 0.464123 -0.0829113   
     length 3.47515  
     axis 0 0 0   XYZ 
    dof ry rz
    limits (-10.0 20.0)
           (-20.0 0.0)
  end
  begin
     id 25 
     name rhumerus
     direction -1 -4.48961e-011 -1.55672e-027  
     length 5.232   
     axis 180 30 90   XYZ
    dof rx ry rz
    limits (-90.0 60.0)
           (-90.0 90.0)
           (-90.0 90.0)
  end
  begin
     id 26 
     name rradius
     direction -1 -4.48963e-011 6.18178e-029   
     length 3.65641   
     axis 180 30 90   XYZ
    dof rx
    limits (-10.0 170.0)
  end
  begin
     id 27 
     name rwrist
     direction -1 -4.48982e-011 1.04136e-027   
     length 1.8282   
     axis -2.56395e-016 -90 -90   XYZ
    dof ry
    limits (-180.0 0.0)
  end
  begin
     id 28
     name rhand
     direction -1 -4.48929e-011 2.07378e-027   
     length 0.656807   
     axis -1.32723e-015 -90 -90   XYZ
    dof rx rz
    limits (-90.0 90.0)
           (-45.0 45.0)
  end
  begin
     id 29
     name rfingers
     direction -1 -4.489e-011 4.13816e-027   
     length 0.529535   
     axis -2.6545e-015 -90 -90   XYZ
    dof rx
    limits (0.0 90.0)
  end
  begin
     id 30
     name rthumb
     direction -0.707107 -6.34843e-011 0.707107   
     length 0.760309   
     axis -90 -45 -5.05613e-014   XYZ
    dof rx rz
    limits (-45.0 45.0)
           (-45.0 45.0)
  end
:hierarchy
  begin
    root lhipjoint rhipjoint lowerback
    lhipjoint lfemur
    lfemur ltibia
    ltibia lfoot
    lfoot ltoes
    rhipjoint rfemur
    rfemur rtibia
    rtibia rfoot
    rfoot rtoes
    lowerback upperback
    upperback thorax
    thorax lowerneck lclavicle rclavicle
    lowerneck upperneck
    upperneck head
    lclavicle lhumerus
    lhumerus lradius
    lradius lwrist
    lwrist lhand lthumb
    lhand lfingers
    rclavicle rhumerus
    rhumerus rradius
    rradius rwrist
    rwrist rhand rthumb
    rhand rfingers
  end

#!OML:ASF H:\ManfredETheater\Project 1\Capture day 1\Session 1\subject.ASF
:FULLY-SPECIFIED
:DEGREES
16
root 5.74058 14.9946 36.8426 -154.887 5.48707 186.306
lowerback 24.9032 2.26774 5.18501
upperback 3.06458 5.6345 3.67683
thorax -10.3735 2.84777 -0.780054
lowerneck -20.559 2.88034 -0.355955
upperneck -5.83046 2.45502 -7.13037
head 1.72108 0.290559 -2.12192
rclavicle -2.54444e-014 -3.81667e-014
rhumerus -28.047 12.7315 -88.9865
rradius 89.1119
rwrist -6.17607
rhand -27.7772 3.83824
rfingers 7.12502
rthumb -1.17069 -26.1383
lclavicle -2.54444e-014 -3.81667e-014
lhumerus -61.3787 -13.0739 86.1274
lradius 58.8363
lwrist -0.973126
lhand -26.2394 -24.7488
lfingers 7.12502
lthumb 0.314548 5.23072
rfemur -30.2055 -4.87574 26.7367
rtibia 60.3821
rfoot -35.5165 -12.4525
rtoes -45.8706
lfemur -68.1159 10.5738 -15.4147
ltibia 101.075
lfoot -17.2622 -4.07129
ltoes -9.94345
17
root 5.71502 14.9711 36.4004 -155.019 6.10444 186.563
lowerback 24.4773 2.67484 5.25724
upperback 3.10998 6.08089 3.35142
thorax -10.0306 3.04887 -1.29074
lowerneck -20.5492 2.70233 -0.213276
upperneck -5.71409 2.22234 -7.08987
head 1.75402 0.186168 -2.15325
rclavicle -3.97569e-015 7.95139e-015
rhumerus -27.09 14.4627 -89.2754
rradius 93.301
rwrist -6.27589
rhand -26.9968 4.12036
rfingers 7.12502
rthumb -0.417017 -25.859
lclavicle -3.97569e-015 7.95139e-015
lhumerus -66.135 -15.756 86.9323
lradius 60.749
lwrist -1.89769
lhand -26.2461 -25.3983
lfingers 7.12502
lthumb 0.308095 4.58117
rfemur -27.277 -4.4113 26.1511
rtibia 58.3439
rfoot -35.5029 -12.0855
rtoes -46.495
lfemur -71.5325 11.1152 -15.4421
ltibia 100.154
lfoot -17.5027 -4.24631
ltoes -9.60151
18
root 5.6898 14.9532 35.9447 -155.138 6.59096 186.731
lowerback 23.9207 3.07081 5.31318
upperback 3.14923 6.49739 3.01848
thorax -9.62078 3.24127 -1.77063
lowerneck -20.4743 2.45705 -0.125946
upperneck -5.612 1.91318 -6.98647
head 1.76498 0.0507568 -2.1586
rclavicle 7.15625e-015 -5.56597e-015
rhumerus -26.3191 16.1065 -89.2626
rradius 97.5967
rwrist -6.17772
rhand -26.3567 4.39287
rfingers 7.12502
rthumb 0.201267 -25.5868
lclavicle 7.15625e-015 -5.56597e-015
lhumerus -71.0873 -18.1762 88.0693
lradius 63.0726
lwrist -2.13485
lhand -26.2805 -25.7374
lfingers 7.12502
lthumb 0.274817 4.24217
rfemur -24.2715 -4.01072 25.513
rtibia 56.0732
rfoot -35.1661 -11.5943
rtoes -47.1619
lfemur -74.6804 11.379 -15.4792
ltibia 98.6063
lfoot -17.6243 -4.48289
ltoes -9.49532
19
root 5.66486 14.9424 35.4747 -155.285 6.87927 186.816
lowerback 23.277 3.43463 5.36683
upperback 3.18641 6.87282 2.71296
thorax -9.1676 3.42082 -2.18789
lowerneck -20.3192 2.15011 -0.105503
upperneck -5.50668 1.54183 -6.82566
head 1.75841 -0.107599 -2.13619
rclavicle -2.14687e-014 -4.77083e-015
rhumerus -25.7098 17.6548 -88.9012
rradius 101.908
rwrist -5.89364
rhand -25.8704 4.63434
rfingers 7.12502
rthumb 0.670871 -25.3444
lclavicle -2.14687e-014 -4.77083e-015
lhumerus -76.0601 -20.1221 89.3636
lradius 65.5926
lwrist -1.60734
lhand -26.2451 -25.8548
lfingers 7.12502
lthumb 0.309044 4.12475
rfemur -21.1238 -3.70838 24.8572
rtibia 53.5361
rfoot -34.4513 -10.9471
rtoes -47.8716
lfemur -77.4577 11.3312 -15.4613
ltibia 96.4379
lfoot -17.6479 -4.81151
ltoes -9.50123
